<svg width="25" height="24" viewBox="0 0 25 24" fill="none" xmlns="http://www.w3.org/2000/svg">
<path d="M13.62 17.275C13.42 17.075 13.3239 16.8333 13.332 16.55C13.34 16.2667 13.4443 16.025 13.6449 15.825L16.4699 13H5.31995C5.03662 13 4.79895 12.904 4.60695 12.712C4.41495 12.52 4.31928 12.2827 4.31995 12C4.31995 11.7167 4.41595 11.479 4.60795 11.287C4.79995 11.095 5.03728 10.9993 5.31995 11H16.4699L13.62 8.14999C13.42 7.94999 13.32 7.71232 13.32 7.43699C13.32 7.16165 13.42 6.92432 13.62 6.72499C13.82 6.52499 14.0576 6.42499 14.3329 6.42499C14.6083 6.42499 14.8456 6.52499 15.045 6.72499L19.6199 11.3C19.7199 11.4 19.791 11.5083 19.833 11.625C19.875 11.7417 19.8956 11.8667 19.895 12C19.895 12.1333 19.8739 12.2583 19.8319 12.375C19.7899 12.4917 19.7193 12.6 19.6199 12.7L15.0199 17.3C14.8366 17.4833 14.6076 17.575 14.3329 17.575C14.0583 17.575 13.8206 17.475 13.62 17.275Z" fill="white"/>
</svg>
