<svg width="31" height="30" viewBox="0 0 31 30" fill="none" xmlns="http://www.w3.org/2000/svg">
<rect x="0.140625" width="30" height="30" rx="15" fill="#4691F2"/>
<g clip-path="url(#clip0_1_413)">
<path d="M11.7117 8.63014C12.4737 9.18548 13.067 9.94348 13.5737 10.6688L13.8683 11.0981L14.1463 11.5081C14.2854 11.7113 14.3448 11.9585 14.3134 12.2027C14.2819 12.4468 14.1617 12.6709 13.9757 12.8321L12.675 13.7981C12.6122 13.8435 12.5679 13.9102 12.5505 13.9857C12.5331 14.0612 12.5437 14.1405 12.5803 14.2088C12.875 14.7441 13.399 15.5415 13.999 16.1415C14.5997 16.7415 15.4343 17.3001 16.007 17.6281C16.0788 17.6685 16.1633 17.6797 16.2432 17.6596C16.323 17.6395 16.3921 17.5896 16.4363 17.5201L17.283 16.2315C17.4387 16.0247 17.6683 15.8862 17.9238 15.8449C18.1793 15.8037 18.4408 15.8629 18.6537 16.0101L19.0957 16.3161C19.9217 16.8895 20.809 17.5408 21.4877 18.4095C21.5953 18.548 21.6638 18.7129 21.6859 18.8869C21.7081 19.0609 21.6831 19.2377 21.6137 19.3988C21.0557 20.7008 19.6437 21.8095 18.175 21.7555L17.975 21.7441L17.8197 21.7308L17.6477 21.7108L17.4603 21.6855L17.257 21.6521C17.2214 21.6457 17.1858 21.6391 17.1503 21.6321L16.9263 21.5841C16.8872 21.5755 16.848 21.5667 16.809 21.5575L16.565 21.4948L16.3083 21.4215L16.0403 21.3348C14.8097 20.9175 13.2477 20.0975 11.645 18.4948C10.043 16.8928 9.223 15.3308 8.80566 14.1001L8.719 13.8321L8.64566 13.5755L8.583 13.3315L8.531 13.1008C8.51598 13.0286 8.50198 12.9561 8.489 12.8835L8.45566 12.6801L8.429 12.4928L8.40966 12.3208L8.39633 12.1655L8.38566 11.9655C8.33166 10.5015 9.45233 9.07948 10.7483 8.52414C10.9043 8.45679 11.0751 8.43114 11.244 8.44973C11.4129 8.46831 11.5741 8.53048 11.7117 8.63014ZM17.135 11.0268L17.2123 11.0355C17.6976 11.1211 18.1433 11.3581 18.4856 11.7126C18.8279 12.0671 19.0491 12.5208 19.1177 13.0088C19.1421 13.1776 19.1009 13.3493 19.0026 13.4887C18.9043 13.628 18.7563 13.7244 18.5891 13.758C18.4219 13.7915 18.2481 13.7597 18.1037 13.6691C17.9592 13.5785 17.8549 13.436 17.8123 13.2708L17.797 13.1941C17.7702 13.0029 17.6885 12.8235 17.562 12.6776C17.4354 12.5317 17.2692 12.4256 17.0837 12.3721L16.9803 12.3488C16.8129 12.3191 16.6632 12.2266 16.5617 12.0902C16.4603 11.9538 16.4148 11.7838 16.4345 11.6149C16.4543 11.446 16.5378 11.2911 16.668 11.1818C16.7982 11.0725 16.9653 11.017 17.135 11.0268ZM17.1403 9.00014C18.2012 9.00014 19.2186 9.42157 19.9688 10.1717C20.7189 10.9219 21.1403 11.9393 21.1403 13.0001C21.1401 13.1701 21.0751 13.3335 20.9584 13.4571C20.8418 13.5806 20.6824 13.655 20.5127 13.6649C20.3431 13.6749 20.1761 13.6197 20.0458 13.5106C19.9155 13.4016 19.8317 13.2469 19.8117 13.0781L19.807 13.0001C19.8072 12.3231 19.5498 11.6713 19.087 11.1772C18.6242 10.683 17.9906 10.3835 17.315 10.3395L17.1403 10.3335C16.9635 10.3335 16.794 10.2632 16.6689 10.1382C16.5439 10.0132 16.4737 9.84362 16.4737 9.66681C16.4737 9.49 16.5439 9.32043 16.6689 9.19541C16.794 9.07038 16.9635 9.00014 17.1403 9.00014Z" fill="white"/>
</g>
<defs>
<clipPath id="clip0_1_413">
<rect width="16" height="16" fill="white" transform="translate(7.14062 7)"/>
</clipPath>
</defs>
</svg>
