<svg width="31" height="30" viewBox="0 0 31 30" fill="none" xmlns="http://www.w3.org/2000/svg">
<rect x="0.140625" width="30" height="30" rx="15" fill="#4691F2"/>
<path d="M6.23126 12.1748V19.455C6.23126 20.1301 6.49945 20.7776 6.97683 21.255C7.45421 21.7324 8.10168 22.0006 8.77679 22.0006H21.5044C22.1796 22.0006 22.827 21.7324 23.3044 21.255C23.7818 20.7776 24.05 20.1301 24.05 19.455V12.1748L16.4745 16.8357C16.0733 17.0825 15.6116 17.2131 15.1406 17.2131C14.6696 17.2131 14.2079 17.0825 13.8068 16.8357L6.23126 12.1748Z" fill="white"/>
<path d="M24.05 10.6796V10.5455C24.05 9.87041 23.7818 9.22295 23.3044 8.74557C22.827 8.26819 22.1796 8 21.5044 8H8.77679C8.10168 8 7.45421 8.26819 6.97683 8.74557C6.49945 9.22295 6.23126 9.87041 6.23126 10.5455V10.6796L14.4737 15.752C14.6743 15.8754 14.9051 15.9407 15.1406 15.9407C15.3761 15.9407 15.607 15.8754 15.8075 15.752L24.05 10.6796Z" fill="white"/>
</svg>
