<svg width="22" height="22" viewBox="0 0 22 22" fill="none" xmlns="http://www.w3.org/2000/svg">
<path d="M10.9674 4.21321C11.889 4.21321 12.7728 4.57931 13.4245 5.23096C14.0761 5.88262 14.4422 6.76645 14.4422 7.68803C14.4422 8.60961 14.0761 9.49344 13.4245 10.1451C12.7728 10.7968 11.889 11.1628 10.9674 11.1628C10.0458 11.1628 9.16198 10.7968 8.51033 10.1451C7.85868 9.49344 7.49258 8.60961 7.49258 7.68803C7.49258 6.76645 7.85868 5.88262 8.51033 5.23096C9.16198 4.57931 10.0458 4.21321 10.9674 4.21321ZM10.9674 12.9003C14.8071 12.9003 17.917 14.4552 17.917 16.3751V18.1125H4.01776V16.3751C4.01776 14.4552 7.12772 12.9003 10.9674 12.9003Z" fill="#4691F2"/>
</svg>
