<svg width="31" height="30" viewBox="0 0 31 30" fill="none" xmlns="http://www.w3.org/2000/svg">
<rect x="0.140625" width="30" height="30" rx="15" fill="#4691F2"/>
<path d="M15.1406 14.625C14.6433 14.625 14.1664 14.4275 13.8148 14.0758C13.4632 13.7242 13.2656 13.2473 13.2656 12.75C13.2656 12.2527 13.4632 11.7758 13.8148 11.4242C14.1664 11.0725 14.6433 10.875 15.1406 10.875C15.6379 10.875 16.1148 11.0725 16.4665 11.4242C16.8181 11.7758 17.0156 12.2527 17.0156 12.75C17.0156 12.9962 16.9671 13.24 16.8729 13.4675C16.7787 13.695 16.6406 13.9017 16.4665 14.0758C16.2923 14.2499 16.0856 14.388 15.8582 14.4823C15.6307 14.5765 15.3869 14.625 15.1406 14.625ZM15.1406 7.5C13.7482 7.5 12.4129 8.05312 11.4283 9.03769C10.4437 10.0223 9.89062 11.3576 9.89062 12.75C9.89063 16.6875 15.1406 22.5 15.1406 22.5C15.1406 22.5 20.3906 16.6875 20.3906 12.75C20.3906 11.3576 19.8375 10.0223 18.8529 9.03769C17.8684 8.05312 16.533 7.5 15.1406 7.5Z" fill="white"/>
</svg>
