<svg width="24" height="24" viewBox="0 0 24 24" fill="none" xmlns="http://www.w3.org/2000/svg">
<g clip-path="url(#clip0_1_26)">
<path d="M6.857 2.445C8 3.278 8.89 4.415 9.65 5.503L10.092 6.147L10.509 6.762C10.7176 7.06673 10.8068 7.43755 10.7596 7.8038C10.7123 8.17005 10.532 8.50613 10.253 8.748L8.302 10.197C8.20774 10.2651 8.14139 10.365 8.11528 10.4783C8.08916 10.5916 8.10505 10.7105 8.16 10.813C8.602 11.616 9.388 12.812 10.288 13.712C11.189 14.612 12.441 15.45 13.3 15.942C13.4077 16.0025 13.5345 16.0194 13.6543 15.9892C13.774 15.9591 13.8777 15.8842 13.944 15.78L15.214 13.847C15.4475 13.5368 15.7919 13.3291 16.1752 13.2672C16.5584 13.2053 16.9508 13.2941 17.27 13.515L17.933 13.974C19.172 14.834 20.503 15.811 21.521 17.114C21.6824 17.3218 21.7851 17.5691 21.8184 17.8302C21.8516 18.0912 21.8142 18.3564 21.71 18.598C20.873 20.551 18.755 22.214 16.552 22.133L16.252 22.116L16.019 22.096L15.761 22.066L15.48 22.028L15.175 21.978C15.1216 21.9684 15.0683 21.9584 15.015 21.948L14.679 21.876C14.6202 21.8631 14.5616 21.8498 14.503 21.836L14.137 21.742L13.752 21.632L13.35 21.502C11.504 20.876 9.161 19.646 6.757 17.242C4.354 14.839 3.124 12.496 2.498 10.65L2.368 10.248L2.258 9.863L2.164 9.497L2.086 9.151C2.06347 9.04264 2.04247 8.93396 2.023 8.825L1.973 8.52L1.933 8.239L1.904 7.981L1.884 7.748L1.868 7.448C1.787 5.252 3.468 3.119 5.412 2.286C5.64598 2.18497 5.9022 2.1465 6.15553 2.17438C6.40886 2.20225 6.65059 2.29551 6.857 2.445ZM14.992 6.04L15.108 6.053C15.8359 6.1814 16.5045 6.53694 17.0179 7.06868C17.5313 7.60042 17.8632 8.28104 17.966 9.013C18.0027 9.26618 17.9409 9.52378 17.7934 9.73281C17.6459 9.94183 17.4239 10.0864 17.1731 10.1367C16.9223 10.1871 16.6617 10.1394 16.445 10.0034C16.2283 9.86753 16.0719 9.65372 16.008 9.406L15.985 9.291C15.9448 9.0041 15.8223 8.73499 15.6324 8.51619C15.4426 8.29738 15.1934 8.13824 14.915 8.058L14.76 8.023C14.5089 7.9785 14.2843 7.83974 14.1321 7.63511C13.9799 7.43048 13.9117 7.17544 13.9413 6.92215C13.9709 6.66886 14.0962 6.43646 14.2915 6.27248C14.4868 6.10851 14.7374 6.02534 14.992 6.04ZM15 3C16.5913 3 18.1174 3.63214 19.2426 4.75736C20.3679 5.88258 21 7.4087 21 9C20.9997 9.25488 20.9021 9.50003 20.7272 9.68537C20.5522 9.87071 20.313 9.98224 20.0586 9.99717C19.8042 10.0121 19.5536 9.92933 19.3582 9.76574C19.1627 9.60215 19.0371 9.3701 19.007 9.117L19 9C19.0004 7.98442 18.6142 7.00676 17.92 6.26553C17.2257 5.52429 16.2754 5.07505 15.262 5.009L15 5C14.7348 5 14.4804 4.89464 14.2929 4.70711C14.1054 4.51957 14 4.26522 14 4C14 3.73479 14.1054 3.48043 14.2929 3.2929C14.4804 3.10536 14.7348 3 15 3Z" fill="white"/>
</g>
<defs>
<clipPath id="clip0_1_26">
<rect width="24" height="24" fill="white"/>
</clipPath>
</defs>
</svg>
