<svg width="21" height="18" viewBox="0 0 21 18" fill="none" xmlns="http://www.w3.org/2000/svg">
<path d="M18.7157 8.32125L3.88471 2.32125C3.73537 2.26084 3.56916 2.23809 3.40538 2.25564C3.2416 2.27318 3.08696 2.33031 2.95944 2.42039C2.83191 2.51047 2.73673 2.6298 2.68493 2.76452C2.63314 2.89924 2.62686 3.04384 2.66683 3.1815L3.72419 6.81825L10.4923 9L3.72419 11.1818L2.66683 14.8185C2.62611 14.9563 2.63186 15.1012 2.68342 15.2362C2.73497 15.3713 2.8302 15.4909 2.95795 15.5812C3.08571 15.6714 3.24071 15.7285 3.40483 15.7458C3.56895 15.7631 3.7354 15.7398 3.88471 15.6788L18.7157 9.67875C18.8655 9.61819 18.9923 9.5222 19.081 9.402C19.1698 9.28181 19.2169 9.14238 19.2169 9C19.2169 8.85763 19.1698 8.7182 19.081 8.598C18.9923 8.47781 18.8655 8.38182 18.7157 8.32125Z" fill="#4691F2"/>
</svg>
