<svg width="9" height="9" viewBox="0 0 9 9" fill="none" xmlns="http://www.w3.org/2000/svg">
<path d="M3.13773 1.19263C3.56652 -0.127032 5.43348 -0.127033 5.86227 1.19263C6.05402 1.7828 6.60399 2.18237 7.22453 2.18237C8.61211 2.18237 9.18903 3.95796 8.06646 4.77356C7.56443 5.1383 7.35436 5.78483 7.54612 6.375C7.97491 7.69466 6.4645 8.79204 5.34193 7.97644C4.8399 7.6117 4.1601 7.6117 3.65807 7.97644C2.5355 8.79204 1.02509 7.69466 1.45388 6.375C1.64564 5.78483 1.43557 5.1383 0.933538 4.77356C-0.189032 3.95796 0.387893 2.18237 1.77547 2.18237C2.39601 2.18237 2.94597 1.7828 3.13773 1.19263Z" fill="#4691F2"/>
</svg>
