<svg width="21" height="20" viewBox="0 0 21 20" fill="none" xmlns="http://www.w3.org/2000/svg">
<path d="M8.10198 15.3208C9.15769 15.3272 10.2042 15.1338 11.1809 14.7519C12.1575 14.3701 13.0448 13.8074 13.7913 13.0964C14.5378 12.3854 15.1287 11.5404 15.5296 10.6102C15.9306 9.68012 16.1336 8.68343 16.127 7.67799V7.3268C16.6742 6.94494 17.1479 6.47571 17.527 5.93989C17.0117 6.15453 16.4664 6.29688 15.9082 6.36251C16.5 6.02666 16.9441 5.49803 17.1582 4.87441C16.6067 5.18956 16.0019 5.4111 15.3707 5.52918C14.9457 5.09785 14.3832 4.81195 13.7704 4.71572C13.1576 4.61948 12.5285 4.71828 11.9806 4.99683C11.4326 5.27537 10.9963 5.71813 10.7392 6.2566C10.4821 6.79507 10.4185 7.39923 10.5582 7.97561C9.43699 7.92319 8.33992 7.64645 7.33845 7.16341C6.33698 6.68036 5.45356 6.00184 4.74573 5.17203C4.3888 5.76202 4.28062 6.45913 4.44308 7.12223C4.60554 7.78532 5.0265 8.36484 5.62073 8.74346C5.18236 8.72736 4.75414 8.61317 4.37073 8.41013V8.43989C4.36683 9.05646 4.58493 9.65567 4.98867 10.1377C5.39241 10.6197 5.9574 10.9553 6.58948 11.0887C6.18175 11.1931 5.75466 11.2094 5.33948 11.1363C5.52247 11.6621 5.87178 12.1212 6.33951 12.4505C6.80723 12.7798 7.37047 12.9632 7.95198 12.9756C6.95774 13.7378 5.72203 14.1574 4.44573 14.1661C4.22195 14.1599 3.99869 14.142 3.77698 14.1125C5.06882 14.8964 6.57023 15.3096 8.10198 15.303" fill="#4691F2"/>
</svg>
