<svg width="18" height="18" viewBox="0 0 18 18" fill="none" xmlns="http://www.w3.org/2000/svg">
<path d="M8.71208 13.8698H8.69819C8.65514 13.8698 4.3475 13.8614 3.26069 13.5663C2.96704 13.4872 2.69932 13.3323 2.48433 13.1172C2.26934 12.9021 2.11464 12.6343 2.03569 12.3406C1.84027 11.2381 1.74589 10.12 1.75375 9.00033C1.7487 7.87881 1.84563 6.75916 2.04333 5.65519C2.12451 5.36101 2.27993 5.09262 2.49469 4.8758C2.70944 4.65897 2.97633 4.50099 3.26972 4.417C4.32667 4.13922 8.51555 4.13922 8.69333 4.13922H8.70791C8.75166 4.13922 13.0704 4.14755 14.1461 4.44269C14.7426 4.6045 15.2086 5.07047 15.3697 5.667C15.5711 6.77394 15.6662 7.89686 15.6524 9.02186C15.6572 10.142 15.5601 11.2603 15.3621 12.3628C15.2821 12.6562 15.1268 12.9236 14.9115 13.1383C14.6963 13.3531 14.4286 13.5078 14.135 13.5871C13.0794 13.867 8.88986 13.8698 8.71208 13.8698ZM7.32319 6.92047L7.31972 11.0871L10.9392 9.00381L7.32319 6.92047Z" fill="#4691F2"/>
</svg>
